 <svg xmlns="http://www.w3.org/2000/svg" xmlns:xlink="http://www.w3.org/1999/xlink" width="50" zoomAndPan="magnify" viewBox="0 0 375 374.999991" height="50" preserveAspectRatio="xMidYMid meet" version="1.0"><defs><g/><clipPath id="3d605009f9"><path d="M 65 153.707031 L 159 153.707031 L 159 176.207031 L 65 176.207031 Z M 65 153.707031 " clip-rule="nonzero"/></clipPath><clipPath id="1ad654fb37"><path d="M 223 152 L 320 152 L 320 171 L 223 171 Z M 223 152 " clip-rule="nonzero"/></clipPath><clipPath id="22b1e7b5c1"><path d="M 225.492188 146.128906 L 319.679688 153.769531 L 317.863281 176.195312 L 223.671875 168.554688 Z M 225.492188 146.128906 " clip-rule="nonzero"/></clipPath><clipPath id="43b07910b6"><path d="M 321.882812 176.425781 L 220.082031 170.0625 L 221.578125 146.109375 L 323.378906 152.472656 Z M 321.882812 176.425781 " clip-rule="nonzero"/></clipPath><clipPath id="1021905242"><path d="M 321.882812 176.425781 L 220.082031 170.0625 L 221.578125 146.109375 L 323.378906 152.472656 Z M 321.882812 176.425781 " clip-rule="nonzero"/></clipPath></defs><rect x="-37.5" width="450" fill="#ffffff" y="-37.499999" height="449.999989" fill-opacity="1"/><rect x="-37.5" width="450" fill="#ffffff" y="-37.499999" height="449.999989" fill-opacity="1"/><g clip-path="url(#3d605009f9)"><path fill="#000000" d="M 67.867188 175.386719 C 68.097656 174.847656 68.007812 174.183594 67.625 173.785156 C 67.589844 173.746094 67.550781 173.695312 67.507812 173.664062 C 67.429688 173.621094 67.355469 173.550781 67.273438 173.484375 C 67.273438 173.484375 67.265625 173.476562 67.265625 173.46875 C 67.257812 173.46875 67.257812 173.46875 67.257812 173.46875 C 66.921875 173.144531 66.597656 172.632812 66.394531 172.25 C 66.386719 172.023438 66.402344 171.769531 66.441406 171.476562 C 66.597656 169.980469 67.8125 168.421875 70.085938 166.78125 C 71.371094 165.828125 72.984375 164.917969 74.933594 164.050781 C 76.960938 163.179688 79.40625 162.417969 82.273438 161.789062 C 88.488281 160.464844 94.480469 160.140625 100.269531 160.816406 C 105.96875 161.503906 111.824219 162.132812 117.84375 162.707031 C 121.136719 163.082031 124.46875 163.292969 127.8125 163.335938 C 131.160156 163.382812 134.6875 163.164062 138.378906 162.683594 C 146.417969 161.644531 152.375 159.773438 156.238281 157.0625 C 157.117188 156.433594 157.917969 155.875 158.652344 155.382812 C 158.726562 155.105469 158.804688 154.832031 158.882812 154.554688 C 158.847656 154.273438 158.808594 153.992188 158.769531 153.707031 C 157.859375 154.339844 156.820312 155.054688 155.617188 155.882812 C 151.652344 158.515625 145.90625 160.328125 138.34375 161.3125 C 131.917969 162.179688 125.796875 162.1875 120.003906 161.34375 C 114.128906 160.507812 108.230469 159.886719 102.316406 159.464844 C 99.113281 159.246094 95.839844 159.183594 92.507812 159.304688 C 89.183594 159.417969 85.769531 159.878906 82.265625 160.660156 C 78.84375 161.441406 76 162.328125 73.742188 163.308594 C 71.574219 164.359375 69.855469 165.40625 68.578125 166.445312 C 66.117188 168.511719 64.933594 170.4375 65.046875 172.230469 L 65.113281 172.835938 C 65.128906 173.003906 65.148438 173.152344 65.179688 173.296875 C 65.203125 173.648438 65.203125 174.011719 65.164062 174.328125 C 65.144531 174.554688 65.15625 174.785156 65.179688 175.011719 C 65.238281 175.574219 65.832031 176.117188 66.476562 176.199219 " fill-opacity="1" fill-rule="nonzero"/></g><g fill="#000000" fill-opacity="1"><g transform="translate(154.484541, 183.268332)"><g><path d="M 6.347656 18.820312 C 16.132812 16.730469 16.65625 6.347656 12.921875 -2.242188 C 18.371094 -4.40625 26.886719 -8.515625 33.308594 -17.476562 C 33.683594 -18 32.785156 -18.296875 31.890625 -17.550781 C 26.960938 -10.382812 18.820312 -5.601562 12.472656 -3.136719 C 9.410156 -9.410156 6.871094 -13.070312 4.257812 -18 C 0.820312 -24.421875 4.183594 -29.128906 8.960938 -30.398438 C 13.292969 -31.515625 17.402344 -25.839844 13.21875 -20.464844 L 14.636719 -20.464844 C 18.445312 -26.140625 14.789062 -32.1875 8.886719 -31.515625 C 1.34375 -30.695312 -3.433594 -23.972656 1.046875 -14.9375 C 3.433594 -10.15625 7.019531 -4.109375 8.738281 -1.046875 C -8.066406 4.628906 -3.882812 20.988281 6.347656 18.820312 Z M 6.871094 17.625 C -2.242188 20.761719 -6.871094 5.675781 9.113281 -0.148438 C 12.546875 8.066406 10.53125 16.355469 6.871094 17.625 Z M 6.871094 17.625 "/></g></g></g><g fill="#000000" fill-opacity="1"><g transform="translate(186.299755, 183.268332)"><g><path d="M 0.597656 -24.046875 C -1.941406 -13.441406 -1.792969 8.289062 6.648438 7.019531 C 9.710938 6.574219 15.460938 0 18.96875 -6.574219 C 25.542969 -5.078125 33.085938 -9.933594 38.761719 -17.476562 C 38.761719 -17.851562 37.566406 -17.773438 37.269531 -17.402344 C 33.308594 -11.949219 25.316406 -6.050781 19.492188 -7.691406 C 25.394531 -20.238281 24.722656 -28.605469 19.71875 -29.648438 C 10.53125 -30.546875 7.691406 -12.25 17.699219 -7.09375 C 13.816406 0.597656 8.8125 5.378906 6.648438 5.75 C 2.613281 6.421875 2.914062 -11.652344 5.976562 -24.570312 C 6.871094 -28.230469 1.570312 -28.230469 0.597656 -24.046875 Z M 18.222656 -8.214844 C 9.035156 -13.144531 12.546875 -29.203125 19.269531 -28.679688 C 24.046875 -27.78125 23.449219 -18.671875 18.222656 -8.214844 Z M 18.222656 -8.214844 "/></g></g></g><g clip-path="url(#1ad654fb37)"><g clip-path="url(#22b1e7b5c1)"><g clip-path="url(#43b07910b6)"><g clip-path="url(#1021905242)"><path fill="#000000" d="M 319.851562 153.128906 C 319.566406 153.691406 319.617188 154.402344 320.003906 154.851562 C 320.042969 154.894531 320.078125 154.953125 320.125 154.988281 C 320.203125 155.039062 320.28125 155.117188 320.363281 155.195312 C 320.363281 155.195312 320.371094 155.203125 320.371094 155.210938 C 320.378906 155.210938 320.378906 155.210938 320.378906 155.210938 C 320.722656 155.578125 321.035156 156.144531 321.226562 156.566406 C 321.21875 156.808594 321.1875 157.078125 321.128906 157.390625 C 320.859375 158.972656 319.445312 160.546875 316.886719 162.140625 C 315.441406 163.070312 313.644531 163.929688 311.484375 164.722656 C 309.246094 165.511719 306.558594 166.15625 303.429688 166.636719 C 296.648438 167.628906 290.171875 167.566406 283.984375 166.457031 C 277.886719 165.34375 271.625 164.277344 265.183594 163.265625 C 261.660156 162.640625 258.085938 162.195312 254.484375 161.921875 C 250.882812 161.648438 247.066406 161.640625 243.058594 161.90625 C 234.335938 162.46875 227.792969 164.0625 223.449219 166.683594 C 222.460938 167.296875 221.566406 167.835938 220.738281 168.3125 C 220.640625 168.601562 220.535156 168.890625 220.433594 169.175781 C 220.453125 169.480469 220.476562 169.785156 220.503906 170.085938 C 221.523438 169.472656 222.6875 168.78125 224.042969 167.984375 C 228.484375 165.449219 234.796875 163.90625 243.007812 163.363281 C 249.984375 162.875 256.582031 163.28125 262.761719 164.566406 C 269.035156 165.851562 275.347656 166.914062 281.6875 167.761719 C 285.125 168.210938 288.644531 168.492188 292.238281 168.589844 C 295.828125 168.695312 299.535156 168.433594 303.363281 167.839844 C 307.101562 167.234375 310.222656 166.484375 312.71875 165.59375 C 315.125 164.617188 317.046875 163.621094 318.488281 162.601562 C 321.277344 160.566406 322.683594 158.59375 322.679688 156.683594 L 322.648438 156.027344 C 322.644531 155.851562 322.628906 155.691406 322.605469 155.535156 C 322.605469 155.15625 322.628906 154.773438 322.691406 154.441406 C 322.730469 154.199219 322.730469 153.953125 322.71875 153.710938 C 322.691406 153.105469 322.089844 152.488281 321.402344 152.359375 " fill-opacity="1" fill-rule="nonzero"/></g></g></g></g><g fill="#000000" fill-opacity="1"><g transform="translate(99.533978, 224.809804)"><g><path d="M 3.234375 -11.328125 C 3.234375 -10.742188 3.375 -10.234375 3.65625 -9.796875 C 3.9375 -9.367188 4.28125 -9.007812 4.6875 -8.71875 C 5.101562 -8.4375 5.664062 -8.078125 6.375 -7.640625 C 7.164062 -7.171875 7.769531 -6.78125 8.1875 -6.46875 C 8.613281 -6.15625 8.976562 -5.753906 9.28125 -5.265625 C 9.59375 -4.785156 9.75 -4.210938 9.75 -3.546875 C 9.75 -2.828125 9.566406 -2.175781 9.203125 -1.59375 C 8.847656 -1.019531 8.320312 -0.566406 7.625 -0.234375 C 6.9375 0.0976562 6.113281 0.265625 5.15625 0.265625 C 4.007812 0.265625 2.957031 0.00390625 2 -0.515625 C 1.925781 -0.554688 1.878906 -0.609375 1.859375 -0.671875 C 1.835938 -0.734375 1.820312 -0.820312 1.8125 -0.9375 L 1.515625 -3.96875 C 1.503906 -4.03125 1.535156 -4.066406 1.609375 -4.078125 C 1.691406 -4.097656 1.742188 -4.078125 1.765625 -4.015625 C 2.003906 -2.941406 2.445312 -2.019531 3.09375 -1.25 C 3.738281 -0.476562 4.59375 -0.09375 5.65625 -0.09375 C 6.40625 -0.09375 7.035156 -0.296875 7.546875 -0.703125 C 8.054688 -1.109375 8.3125 -1.757812 8.3125 -2.65625 C 8.3125 -3.320312 8.160156 -3.898438 7.859375 -4.390625 C 7.566406 -4.878906 7.207031 -5.285156 6.78125 -5.609375 C 6.363281 -5.929688 5.789062 -6.304688 5.0625 -6.734375 C 4.34375 -7.160156 3.78125 -7.53125 3.375 -7.84375 C 2.96875 -8.15625 2.625 -8.550781 2.34375 -9.03125 C 2.0625 -9.507812 1.921875 -10.066406 1.921875 -10.703125 C 1.921875 -11.441406 2.113281 -12.078125 2.5 -12.609375 C 2.894531 -13.140625 3.410156 -13.535156 4.046875 -13.796875 C 4.679688 -14.054688 5.351562 -14.1875 6.0625 -14.1875 C 6.9375 -14.1875 7.804688 -14.003906 8.671875 -13.640625 C 8.898438 -13.566406 9.015625 -13.441406 9.015625 -13.265625 L 9.15625 -10.703125 C 9.15625 -10.640625 9.117188 -10.609375 9.046875 -10.609375 C 8.972656 -10.609375 8.929688 -10.640625 8.921875 -10.703125 C 8.796875 -11.472656 8.472656 -12.1875 7.953125 -12.84375 C 7.429688 -13.507812 6.679688 -13.84375 5.703125 -13.84375 C 4.867188 -13.84375 4.25 -13.597656 3.84375 -13.109375 C 3.4375 -12.628906 3.234375 -12.035156 3.234375 -11.328125 Z M 3.234375 -11.328125 "/></g></g></g><g fill="#000000" fill-opacity="1"><g transform="translate(113.420833, 224.809804)"><g><path d="M 6.9375 -1.15625 C 7 -1.15625 7.039062 -1.117188 7.0625 -1.046875 C 7.09375 -0.984375 7.085938 -0.941406 7.046875 -0.921875 C 6.492188 -0.484375 6 -0.175781 5.5625 0 C 5.125 0.175781 4.664062 0.265625 4.1875 0.265625 C 3.5625 0.265625 3.046875 0.125 2.640625 -0.15625 C 2.242188 -0.4375 2.046875 -0.90625 2.046875 -1.5625 L 2.046875 -6.796875 C 2.046875 -7.179688 2.019531 -7.457031 1.96875 -7.625 C 1.914062 -7.789062 1.816406 -7.898438 1.671875 -7.953125 C 1.523438 -8.003906 1.273438 -8.03125 0.921875 -8.03125 C 0.859375 -8.03125 0.828125 -8.078125 0.828125 -8.171875 C 0.828125 -8.265625 0.859375 -8.3125 0.921875 -8.3125 C 1.515625 -8.332031 1.992188 -8.492188 2.359375 -8.796875 C 2.734375 -9.097656 2.953125 -9.503906 3.015625 -10.015625 C 3.015625 -10.054688 3.070312 -10.078125 3.1875 -10.078125 C 3.289062 -10.078125 3.34375 -10.054688 3.34375 -10.015625 L 3.34375 -8.359375 C 4.082031 -8.378906 5.113281 -8.453125 6.4375 -8.578125 C 6.46875 -8.578125 6.5 -8.519531 6.53125 -8.40625 C 6.570312 -8.300781 6.59375 -8.179688 6.59375 -8.046875 C 6.59375 -7.929688 6.566406 -7.804688 6.515625 -7.671875 C 6.460938 -7.546875 6.410156 -7.492188 6.359375 -7.515625 C 5.535156 -7.722656 4.53125 -7.84375 3.34375 -7.875 L 3.34375 -2.3125 C 3.34375 -1.707031 3.492188 -1.253906 3.796875 -0.953125 C 4.109375 -0.660156 4.546875 -0.515625 5.109375 -0.515625 C 5.765625 -0.515625 6.359375 -0.722656 6.890625 -1.140625 Z M 6.9375 -1.15625 "/></g></g></g><g fill="#000000" fill-opacity="1"><g transform="translate(123.897475, 224.809804)"><g><path d="M 8 -1.25 C 8.050781 -1.25 8.09375 -1.222656 8.125 -1.171875 C 8.164062 -1.117188 8.171875 -1.070312 8.140625 -1.03125 C 7.160156 -0.164062 6.078125 0.265625 4.890625 0.265625 C 4.023438 0.265625 3.285156 0.0664062 2.671875 -0.328125 C 2.066406 -0.734375 1.601562 -1.265625 1.28125 -1.921875 C 0.957031 -2.578125 0.796875 -3.273438 0.796875 -4.015625 C 0.796875 -4.890625 1.003906 -5.691406 1.421875 -6.421875 C 1.835938 -7.160156 2.40625 -7.742188 3.125 -8.171875 C 3.851562 -8.597656 4.644531 -8.8125 5.5 -8.8125 C 6.332031 -8.8125 6.972656 -8.585938 7.421875 -8.140625 C 7.867188 -7.691406 8.09375 -7.066406 8.09375 -6.265625 C 8.09375 -6.054688 8.070312 -5.90625 8.03125 -5.8125 C 8 -5.726562 7.9375 -5.6875 7.84375 -5.6875 L 2.3125 -5.65625 C 2.289062 -5.332031 2.28125 -5.066406 2.28125 -4.859375 C 2.28125 -3.566406 2.582031 -2.519531 3.1875 -1.71875 C 3.800781 -0.914062 4.65625 -0.515625 5.75 -0.515625 C 6.195312 -0.515625 6.578125 -0.570312 6.890625 -0.6875 C 7.210938 -0.8125 7.578125 -1 7.984375 -1.25 Z M 4.765625 -8.359375 C 4.128906 -8.359375 3.601562 -8.144531 3.1875 -7.71875 C 2.769531 -7.300781 2.492188 -6.710938 2.359375 -5.953125 L 6.59375 -6.046875 C 6.59375 -6.796875 6.429688 -7.367188 6.109375 -7.765625 C 5.785156 -8.160156 5.335938 -8.359375 4.765625 -8.359375 Z M 4.765625 -8.359375 "/></g></g></g><g fill="#000000" fill-opacity="1"><g transform="translate(135.934335, 224.809804)"><g><path d="M 7.109375 -16.1875 C 7.867188 -16.1875 8.488281 -16.070312 8.96875 -15.84375 C 9.457031 -15.613281 9.703125 -15.332031 9.703125 -15 C 9.703125 -14.78125 9.625 -14.609375 9.46875 -14.484375 C 9.3125 -14.359375 9.128906 -14.296875 8.921875 -14.296875 C 8.742188 -14.296875 8.585938 -14.335938 8.453125 -14.421875 C 8.316406 -14.515625 8.175781 -14.664062 8.03125 -14.875 C 7.800781 -15.1875 7.554688 -15.421875 7.296875 -15.578125 C 7.035156 -15.734375 6.710938 -15.8125 6.328125 -15.8125 C 5.472656 -15.8125 4.789062 -15.3125 4.28125 -14.3125 C 3.769531 -13.320312 3.515625 -11.8125 3.515625 -9.78125 L 3.515625 -8.359375 C 4.203125 -8.378906 5.15625 -8.453125 6.375 -8.578125 C 6.414062 -8.578125 6.453125 -8.523438 6.484375 -8.421875 C 6.515625 -8.316406 6.53125 -8.191406 6.53125 -8.046875 C 6.53125 -7.929688 6.507812 -7.804688 6.46875 -7.671875 C 6.425781 -7.546875 6.375 -7.492188 6.3125 -7.515625 C 5.445312 -7.722656 4.515625 -7.84375 3.515625 -7.875 L 3.515625 -1.8125 C 3.515625 -1.34375 3.566406 -1.003906 3.671875 -0.796875 C 3.773438 -0.585938 3.976562 -0.445312 4.28125 -0.375 C 4.582031 -0.300781 5.054688 -0.265625 5.703125 -0.265625 C 5.753906 -0.265625 5.78125 -0.21875 5.78125 -0.125 C 5.78125 -0.0390625 5.753906 0 5.703125 0 L 4.28125 -0.015625 C 3.96875 -0.0351562 3.492188 -0.046875 2.859375 -0.046875 L 1.609375 -0.015625 C 1.398438 -0.00390625 1.101562 0 0.71875 0 C 0.664062 0 0.640625 -0.0390625 0.640625 -0.125 C 0.640625 -0.21875 0.664062 -0.265625 0.71875 -0.265625 C 1.15625 -0.265625 1.476562 -0.304688 1.6875 -0.390625 C 1.894531 -0.472656 2.039062 -0.617188 2.125 -0.828125 C 2.207031 -1.035156 2.25 -1.363281 2.25 -1.8125 L 2.25 -6.828125 C 2.25 -7.210938 2.210938 -7.484375 2.140625 -7.640625 C 2.066406 -7.796875 1.921875 -7.898438 1.703125 -7.953125 C 1.484375 -8.003906 1.125 -8.03125 0.625 -8.03125 C 0.582031 -8.03125 0.5625 -8.078125 0.5625 -8.171875 C 0.5625 -8.265625 0.582031 -8.3125 0.625 -8.3125 C 1.226562 -8.3125 1.640625 -8.378906 1.859375 -8.515625 C 2.078125 -8.660156 2.191406 -8.925781 2.203125 -9.3125 C 2.273438 -11.726562 2.71875 -13.476562 3.53125 -14.5625 C 4.34375 -15.644531 5.535156 -16.1875 7.109375 -16.1875 Z M 7.109375 -16.1875 "/></g></g></g><g fill="#000000" fill-opacity="1"><g transform="translate(145.675431, 224.809804)"><g><path d="M 9.25 -1.203125 C 9.3125 -1.203125 9.347656 -1.164062 9.359375 -1.09375 C 9.378906 -1.03125 9.359375 -0.984375 9.296875 -0.953125 L 7 0.140625 C 6.9375 0.160156 6.878906 0.171875 6.828125 0.171875 C 6.628906 0.171875 6.457031 0.0390625 6.3125 -0.21875 C 6.164062 -0.476562 6.066406 -0.828125 6.015625 -1.265625 L 4.859375 -0.515625 C 4.484375 -0.273438 4.15625 -0.101562 3.875 0 C 3.59375 0.101562 3.296875 0.15625 2.984375 0.15625 C 2.429688 0.15625 2.003906 0.0078125 1.703125 -0.28125 C 1.398438 -0.570312 1.25 -0.9375 1.25 -1.375 C 1.25 -1.820312 1.425781 -2.207031 1.78125 -2.53125 C 2.132812 -2.863281 2.722656 -3.179688 3.546875 -3.484375 L 6 -4.390625 L 6 -5.90625 C 6 -7.570312 5.53125 -8.40625 4.59375 -8.40625 C 4.082031 -8.40625 3.695312 -8.238281 3.4375 -7.90625 C 3.175781 -7.570312 3.003906 -7.1875 2.921875 -6.75 C 2.878906 -6.488281 2.796875 -6.269531 2.671875 -6.09375 C 2.554688 -5.925781 2.359375 -5.84375 2.078125 -5.84375 C 1.835938 -5.84375 1.65625 -5.910156 1.53125 -6.046875 C 1.40625 -6.179688 1.34375 -6.335938 1.34375 -6.515625 C 1.34375 -6.867188 1.570312 -7.222656 2.03125 -7.578125 C 2.488281 -7.929688 3.035156 -8.226562 3.671875 -8.46875 C 4.316406 -8.707031 4.890625 -8.828125 5.390625 -8.828125 C 6.003906 -8.828125 6.46875 -8.632812 6.78125 -8.25 C 7.09375 -7.863281 7.25 -7.304688 7.25 -6.578125 L 7.25 -2.40625 C 7.25 -1.882812 7.3125 -1.503906 7.4375 -1.265625 C 7.570312 -1.035156 7.796875 -0.921875 8.109375 -0.921875 C 8.398438 -0.921875 8.765625 -1.015625 9.203125 -1.203125 Z M 6 -1.578125 L 6 -4.078125 L 3.921875 -3.28125 C 3.503906 -3.113281 3.203125 -2.921875 3.015625 -2.703125 C 2.835938 -2.492188 2.75 -2.238281 2.75 -1.9375 C 2.75 -1.582031 2.863281 -1.28125 3.09375 -1.03125 C 3.320312 -0.789062 3.617188 -0.671875 3.984375 -0.671875 C 4.285156 -0.671875 4.644531 -0.789062 5.0625 -1.03125 Z M 6 -1.578125 "/></g></g></g><g fill="#000000" fill-opacity="1"><g transform="translate(157.95747, 224.809804)"><g><path d="M 11.03125 -0.265625 C 11.082031 -0.265625 11.109375 -0.21875 11.109375 -0.125 C 11.109375 -0.0390625 11.082031 0 11.03125 0 C 10.695312 0 10.429688 -0.00390625 10.234375 -0.015625 L 9.03125 -0.046875 L 7.796875 -0.015625 C 7.609375 -0.00390625 7.34375 0 7 0 C 6.957031 0 6.9375 -0.0390625 6.9375 -0.125 C 6.9375 -0.21875 6.957031 -0.265625 7 -0.265625 C 7.40625 -0.265625 7.703125 -0.304688 7.890625 -0.390625 C 8.085938 -0.472656 8.21875 -0.617188 8.28125 -0.828125 C 8.351562 -1.035156 8.390625 -1.363281 8.390625 -1.8125 L 8.390625 -5.421875 C 8.390625 -6.296875 8.21875 -6.941406 7.875 -7.359375 C 7.539062 -7.773438 7.023438 -7.984375 6.328125 -7.984375 C 5.867188 -7.984375 5.40625 -7.859375 4.9375 -7.609375 C 4.46875 -7.367188 4.039062 -7.03125 3.65625 -6.59375 L 3.65625 -1.8125 C 3.65625 -1.363281 3.6875 -1.035156 3.75 -0.828125 C 3.820312 -0.617188 3.953125 -0.472656 4.140625 -0.390625 C 4.335938 -0.304688 4.640625 -0.265625 5.046875 -0.265625 C 5.085938 -0.265625 5.109375 -0.21875 5.109375 -0.125 C 5.109375 -0.0390625 5.085938 0 5.046875 0 C 4.703125 0 4.429688 -0.00390625 4.234375 -0.015625 L 3.03125 -0.046875 L 1.8125 -0.015625 C 1.613281 -0.00390625 1.34375 0 1 0 C 0.957031 0 0.9375 -0.0390625 0.9375 -0.125 C 0.9375 -0.21875 0.957031 -0.265625 1 -0.265625 C 1.40625 -0.265625 1.703125 -0.304688 1.890625 -0.390625 C 2.085938 -0.472656 2.21875 -0.617188 2.28125 -0.828125 C 2.351562 -1.035156 2.390625 -1.363281 2.390625 -1.8125 L 2.390625 -6.21875 C 2.390625 -6.726562 2.328125 -7.09375 2.203125 -7.3125 C 2.085938 -7.53125 1.890625 -7.640625 1.609375 -7.640625 C 1.367188 -7.640625 0.96875 -7.53125 0.40625 -7.3125 L 0.359375 -7.3125 C 0.296875 -7.3125 0.253906 -7.34375 0.234375 -7.40625 C 0.210938 -7.476562 0.234375 -7.53125 0.296875 -7.5625 L 2.875 -8.78125 L 3.015625 -8.8125 C 3.140625 -8.8125 3.273438 -8.640625 3.421875 -8.296875 C 3.578125 -7.953125 3.65625 -7.515625 3.65625 -6.984375 C 4.21875 -7.628906 4.773438 -8.109375 5.328125 -8.421875 C 5.890625 -8.734375 6.46875 -8.890625 7.0625 -8.890625 C 7.894531 -8.890625 8.535156 -8.660156 8.984375 -8.203125 C 9.429688 -7.742188 9.65625 -7.066406 9.65625 -6.171875 L 9.65625 -1.8125 C 9.65625 -1.363281 9.6875 -1.035156 9.75 -0.828125 C 9.820312 -0.617188 9.953125 -0.472656 10.140625 -0.390625 C 10.335938 -0.304688 10.632812 -0.265625 11.03125 -0.265625 Z M 11.03125 -0.265625 "/></g></g></g><g fill="#000000" fill-opacity="1"><g transform="translate(172.423831, 224.809804)"><g><path d="M 3.046875 -11.421875 C 2.742188 -11.421875 2.503906 -11.5 2.328125 -11.65625 C 2.160156 -11.820312 2.078125 -12.054688 2.078125 -12.359375 C 2.078125 -12.648438 2.160156 -12.875 2.328125 -13.03125 C 2.503906 -13.195312 2.742188 -13.28125 3.046875 -13.28125 C 3.347656 -13.28125 3.578125 -13.195312 3.734375 -13.03125 C 3.898438 -12.875 3.984375 -12.648438 3.984375 -12.359375 C 3.984375 -12.054688 3.898438 -11.820312 3.734375 -11.65625 C 3.578125 -11.5 3.347656 -11.421875 3.046875 -11.421875 Z M 1.1875 0 C 1.15625 0 1.140625 -0.0390625 1.140625 -0.125 C 1.140625 -0.21875 1.15625 -0.265625 1.1875 -0.265625 C 1.582031 -0.265625 1.878906 -0.304688 2.078125 -0.390625 C 2.285156 -0.472656 2.425781 -0.617188 2.5 -0.828125 C 2.570312 -1.046875 2.609375 -1.375 2.609375 -1.8125 L 2.609375 -5.96875 C 2.609375 -6.507812 2.550781 -6.894531 2.4375 -7.125 C 2.332031 -7.363281 2.144531 -7.484375 1.875 -7.484375 C 1.601562 -7.484375 1.269531 -7.378906 0.875 -7.171875 L 0.84375 -7.171875 C 0.789062 -7.171875 0.75 -7.207031 0.71875 -7.28125 C 0.6875 -7.363281 0.691406 -7.421875 0.734375 -7.453125 L 3.640625 -8.78125 L 3.71875 -8.8125 C 3.75 -8.8125 3.785156 -8.789062 3.828125 -8.75 C 3.878906 -8.71875 3.90625 -8.675781 3.90625 -8.625 C 3.90625 -8.519531 3.894531 -8.222656 3.875 -7.734375 C 3.863281 -7.242188 3.859375 -6.664062 3.859375 -6 L 3.859375 -1.8125 C 3.859375 -1.363281 3.894531 -1.035156 3.96875 -0.828125 C 4.039062 -0.617188 4.171875 -0.472656 4.359375 -0.390625 C 4.554688 -0.304688 4.859375 -0.265625 5.265625 -0.265625 C 5.304688 -0.265625 5.328125 -0.21875 5.328125 -0.125 C 5.328125 -0.0390625 5.304688 0 5.265625 0 C 4.921875 0 4.644531 -0.00390625 4.4375 -0.015625 L 3.234375 -0.046875 L 2.03125 -0.015625 C 1.820312 -0.00390625 1.539062 0 1.1875 0 Z M 1.1875 0 "/></g></g></g><g fill="#000000" fill-opacity="1"><g transform="translate(181.451686, 224.809804)"><g><path d="M 8 -1.25 C 8.050781 -1.25 8.09375 -1.222656 8.125 -1.171875 C 8.164062 -1.117188 8.171875 -1.070312 8.140625 -1.03125 C 7.160156 -0.164062 6.078125 0.265625 4.890625 0.265625 C 4.023438 0.265625 3.285156 0.0664062 2.671875 -0.328125 C 2.066406 -0.734375 1.601562 -1.265625 1.28125 -1.921875 C 0.957031 -2.578125 0.796875 -3.273438 0.796875 -4.015625 C 0.796875 -4.890625 1.003906 -5.691406 1.421875 -6.421875 C 1.835938 -7.160156 2.40625 -7.742188 3.125 -8.171875 C 3.851562 -8.597656 4.644531 -8.8125 5.5 -8.8125 C 6.332031 -8.8125 6.972656 -8.585938 7.421875 -8.140625 C 7.867188 -7.691406 8.09375 -7.066406 8.09375 -6.265625 C 8.09375 -6.054688 8.070312 -5.90625 8.03125 -5.8125 C 8 -5.726562 7.9375 -5.6875 7.84375 -5.6875 L 2.3125 -5.65625 C 2.289062 -5.332031 2.28125 -5.066406 2.28125 -4.859375 C 2.28125 -3.566406 2.582031 -2.519531 3.1875 -1.71875 C 3.800781 -0.914062 4.65625 -0.515625 5.75 -0.515625 C 6.195312 -0.515625 6.578125 -0.570312 6.890625 -0.6875 C 7.210938 -0.8125 7.578125 -1 7.984375 -1.25 Z M 4.765625 -8.359375 C 4.128906 -8.359375 3.601562 -8.144531 3.1875 -7.71875 C 2.769531 -7.300781 2.492188 -6.710938 2.359375 -5.953125 L 6.59375 -6.046875 C 6.59375 -6.796875 6.429688 -7.367188 6.109375 -7.765625 C 5.785156 -8.160156 5.335938 -8.359375 4.765625 -8.359375 Z M 4.765625 -8.359375 "/></g></g></g><g fill="#000000" fill-opacity="1"><g transform="translate(193.488546, 224.809804)"><g/></g></g><g fill="#000000" fill-opacity="1"><g transform="translate(201.64713, 224.809804)"><g><path d="M 14.921875 -13.9375 C 14.960938 -13.9375 14.984375 -13.890625 14.984375 -13.796875 C 14.984375 -13.710938 14.960938 -13.671875 14.921875 -13.671875 C 14.410156 -13.671875 13.96875 -13.535156 13.59375 -13.265625 C 13.226562 -12.992188 12.921875 -12.539062 12.671875 -11.90625 L 7.921875 -0.015625 C 7.898438 0.0351562 7.816406 0.0625 7.671875 0.0625 C 7.546875 0.0625 7.460938 0.0351562 7.421875 -0.015625 L 1.875 -12.078125 C 1.625 -12.660156 1.351562 -13.070312 1.0625 -13.3125 C 0.78125 -13.550781 0.421875 -13.671875 -0.015625 -13.671875 C -0.0664062 -13.671875 -0.09375 -13.710938 -0.09375 -13.796875 C -0.09375 -13.890625 -0.0664062 -13.9375 -0.015625 -13.9375 L 0.828125 -13.90625 C 1.242188 -13.882812 1.578125 -13.875 1.828125 -13.875 C 2.421875 -13.875 3.0625 -13.882812 3.75 -13.90625 L 4.65625 -13.9375 C 4.707031 -13.9375 4.734375 -13.890625 4.734375 -13.796875 C 4.734375 -13.710938 4.707031 -13.671875 4.65625 -13.671875 C 3.738281 -13.671875 3.28125 -13.410156 3.28125 -12.890625 C 3.28125 -12.710938 3.347656 -12.472656 3.484375 -12.171875 L 8.140625 -1.96875 L 12.15625 -12.015625 C 12.269531 -12.328125 12.328125 -12.570312 12.328125 -12.75 C 12.328125 -13.0625 12.1875 -13.289062 11.90625 -13.4375 C 11.625 -13.59375 11.1875 -13.671875 10.59375 -13.671875 C 10.550781 -13.671875 10.53125 -13.710938 10.53125 -13.796875 C 10.53125 -13.890625 10.550781 -13.9375 10.59375 -13.9375 L 11.546875 -13.90625 C 12.054688 -13.882812 12.519531 -13.875 12.9375 -13.875 C 13.25 -13.875 13.597656 -13.882812 13.984375 -13.90625 Z M 14.921875 -13.9375 "/></g></g></g><g fill="#000000" fill-opacity="1"><g transform="translate(219.434555, 224.809804)"><g><path d="M 9.25 -1.203125 C 9.3125 -1.203125 9.347656 -1.164062 9.359375 -1.09375 C 9.378906 -1.03125 9.359375 -0.984375 9.296875 -0.953125 L 7 0.140625 C 6.9375 0.160156 6.878906 0.171875 6.828125 0.171875 C 6.628906 0.171875 6.457031 0.0390625 6.3125 -0.21875 C 6.164062 -0.476562 6.066406 -0.828125 6.015625 -1.265625 L 4.859375 -0.515625 C 4.484375 -0.273438 4.15625 -0.101562 3.875 0 C 3.59375 0.101562 3.296875 0.15625 2.984375 0.15625 C 2.429688 0.15625 2.003906 0.0078125 1.703125 -0.28125 C 1.398438 -0.570312 1.25 -0.9375 1.25 -1.375 C 1.25 -1.820312 1.425781 -2.207031 1.78125 -2.53125 C 2.132812 -2.863281 2.722656 -3.179688 3.546875 -3.484375 L 6 -4.390625 L 6 -5.90625 C 6 -7.570312 5.53125 -8.40625 4.59375 -8.40625 C 4.082031 -8.40625 3.695312 -8.238281 3.4375 -7.90625 C 3.175781 -7.570312 3.003906 -7.1875 2.921875 -6.75 C 2.878906 -6.488281 2.796875 -6.269531 2.671875 -6.09375 C 2.554688 -5.925781 2.359375 -5.84375 2.078125 -5.84375 C 1.835938 -5.84375 1.65625 -5.910156 1.53125 -6.046875 C 1.40625 -6.179688 1.34375 -6.335938 1.34375 -6.515625 C 1.34375 -6.867188 1.570312 -7.222656 2.03125 -7.578125 C 2.488281 -7.929688 3.035156 -8.226562 3.671875 -8.46875 C 4.316406 -8.707031 4.890625 -8.828125 5.390625 -8.828125 C 6.003906 -8.828125 6.46875 -8.632812 6.78125 -8.25 C 7.09375 -7.863281 7.25 -7.304688 7.25 -6.578125 L 7.25 -2.40625 C 7.25 -1.882812 7.3125 -1.503906 7.4375 -1.265625 C 7.570312 -1.035156 7.796875 -0.921875 8.109375 -0.921875 C 8.398438 -0.921875 8.765625 -1.015625 9.203125 -1.203125 Z M 6 -1.578125 L 6 -4.078125 L 3.921875 -3.28125 C 3.503906 -3.113281 3.203125 -2.921875 3.015625 -2.703125 C 2.835938 -2.492188 2.75 -2.238281 2.75 -1.9375 C 2.75 -1.582031 2.863281 -1.28125 3.09375 -1.03125 C 3.320312 -0.789062 3.617188 -0.671875 3.984375 -0.671875 C 4.285156 -0.671875 4.644531 -0.789062 5.0625 -1.03125 Z M 6 -1.578125 "/></g></g></g><g fill="#000000" fill-opacity="1"><g transform="translate(231.716594, 224.809804)"><g><path d="M 6.125 -8.8125 C 6.457031 -8.8125 6.769531 -8.71875 7.0625 -8.53125 C 7.363281 -8.351562 7.515625 -8.140625 7.515625 -7.890625 C 7.515625 -7.703125 7.453125 -7.539062 7.328125 -7.40625 C 7.203125 -7.269531 7.019531 -7.203125 6.78125 -7.203125 C 6.644531 -7.203125 6.523438 -7.226562 6.421875 -7.28125 C 6.328125 -7.332031 6.21875 -7.410156 6.09375 -7.515625 C 5.957031 -7.628906 5.828125 -7.71875 5.703125 -7.78125 C 5.585938 -7.84375 5.445312 -7.875 5.28125 -7.875 C 5.09375 -7.875 4.890625 -7.789062 4.671875 -7.625 C 4.453125 -7.457031 4.113281 -7.109375 3.65625 -6.578125 L 3.65625 -1.8125 C 3.65625 -1.363281 3.707031 -1.035156 3.8125 -0.828125 C 3.925781 -0.617188 4.132812 -0.472656 4.4375 -0.390625 C 4.738281 -0.304688 5.195312 -0.265625 5.8125 -0.265625 C 5.875 -0.265625 5.90625 -0.21875 5.90625 -0.125 C 5.90625 -0.0390625 5.875 0 5.8125 0 C 5.34375 0 4.96875 -0.00390625 4.6875 -0.015625 L 3.03125 -0.046875 L 1.8125 -0.015625 C 1.613281 -0.00390625 1.34375 0 1 0 C 0.957031 0 0.9375 -0.0390625 0.9375 -0.125 C 0.9375 -0.21875 0.957031 -0.265625 1 -0.265625 C 1.40625 -0.265625 1.703125 -0.304688 1.890625 -0.390625 C 2.085938 -0.472656 2.21875 -0.617188 2.28125 -0.828125 C 2.351562 -1.035156 2.390625 -1.363281 2.390625 -1.8125 L 2.390625 -6.21875 C 2.390625 -6.726562 2.328125 -7.09375 2.203125 -7.3125 C 2.085938 -7.53125 1.890625 -7.640625 1.609375 -7.640625 C 1.367188 -7.640625 0.96875 -7.53125 0.40625 -7.3125 L 0.359375 -7.3125 C 0.296875 -7.3125 0.253906 -7.34375 0.234375 -7.40625 C 0.210938 -7.476562 0.234375 -7.53125 0.296875 -7.5625 L 2.875 -8.78125 L 3.015625 -8.8125 C 3.140625 -8.8125 3.273438 -8.640625 3.421875 -8.296875 C 3.578125 -7.953125 3.65625 -7.515625 3.65625 -6.984375 L 3.65625 -6.953125 C 4.269531 -7.671875 4.753906 -8.160156 5.109375 -8.421875 C 5.460938 -8.679688 5.800781 -8.8125 6.125 -8.8125 Z M 6.125 -8.8125 "/></g></g></g><g fill="#000000" fill-opacity="1"><g transform="translate(242.772742, 224.809804)"><g><path d="M 5.625 -0.53125 C 6.425781 -0.519531 7.070312 -0.476562 7.5625 -0.40625 C 8.050781 -0.34375 8.503906 -0.148438 8.921875 0.171875 C 9.335938 0.503906 9.546875 1.023438 9.546875 1.734375 C 9.546875 2.535156 9.285156 3.28125 8.765625 3.96875 C 8.242188 4.664062 7.554688 5.21875 6.703125 5.625 C 5.847656 6.039062 4.953125 6.25 4.015625 6.25 C 2.984375 6.25 2.175781 6.019531 1.59375 5.5625 C 1.007812 5.113281 0.71875 4.523438 0.71875 3.796875 C 0.71875 2.691406 1.484375 1.601562 3.015625 0.53125 C 2.441406 0.457031 2.003906 0.304688 1.703125 0.078125 C 1.410156 -0.148438 1.265625 -0.492188 1.265625 -0.953125 C 1.265625 -1.398438 1.390625 -1.796875 1.640625 -2.140625 C 1.898438 -2.492188 2.3125 -2.894531 2.875 -3.34375 C 2.375 -3.59375 1.976562 -3.941406 1.6875 -4.390625 C 1.40625 -4.835938 1.265625 -5.328125 1.265625 -5.859375 C 1.265625 -6.691406 1.59375 -7.382812 2.25 -7.9375 C 2.914062 -8.488281 3.769531 -8.765625 4.8125 -8.765625 C 5.78125 -8.765625 6.554688 -8.535156 7.140625 -8.078125 C 7.535156 -8.304688 7.921875 -8.476562 8.296875 -8.59375 C 8.679688 -8.71875 9.085938 -8.78125 9.515625 -8.78125 C 9.546875 -8.78125 9.570312 -8.726562 9.59375 -8.625 C 9.613281 -8.519531 9.625 -8.410156 9.625 -8.296875 C 9.625 -8.117188 9.601562 -7.9375 9.5625 -7.75 C 9.53125 -7.570312 9.488281 -7.5 9.4375 -7.53125 C 9.175781 -7.632812 8.929688 -7.71875 8.703125 -7.78125 C 8.472656 -7.84375 8.21875 -7.875 7.9375 -7.875 C 7.789062 -7.875 7.613281 -7.859375 7.40625 -7.828125 C 7.90625 -7.273438 8.15625 -6.632812 8.15625 -5.90625 C 8.15625 -5.382812 8.007812 -4.894531 7.71875 -4.4375 C 7.4375 -3.988281 7.023438 -3.628906 6.484375 -3.359375 C 5.953125 -3.097656 5.34375 -2.96875 4.65625 -2.96875 C 4.132812 -2.96875 3.648438 -3.046875 3.203125 -3.203125 C 2.910156 -2.953125 2.703125 -2.710938 2.578125 -2.484375 C 2.453125 -2.265625 2.390625 -2.023438 2.390625 -1.765625 C 2.390625 -1.429688 2.488281 -1.179688 2.6875 -1.015625 C 2.882812 -0.847656 3.210938 -0.722656 3.671875 -0.640625 C 4.140625 -0.566406 4.789062 -0.53125 5.625 -0.53125 Z M 4.28125 -8.421875 C 3.195312 -8.421875 2.65625 -7.75 2.65625 -6.40625 C 2.65625 -5.726562 2.769531 -5.15625 3 -4.6875 C 3.238281 -4.21875 3.546875 -3.867188 3.921875 -3.640625 C 4.296875 -3.410156 4.679688 -3.296875 5.078125 -3.296875 C 5.585938 -3.296875 5.992188 -3.46875 6.296875 -3.8125 C 6.597656 -4.164062 6.75 -4.703125 6.75 -5.421875 C 6.75 -6.335938 6.507812 -7.066406 6.03125 -7.609375 C 5.5625 -8.148438 4.976562 -8.421875 4.28125 -8.421875 Z M 4.921875 5.578125 C 5.953125 5.578125 6.789062 5.304688 7.4375 4.765625 C 8.09375 4.222656 8.421875 3.5 8.421875 2.59375 C 8.421875 1.988281 8.273438 1.550781 7.984375 1.28125 C 7.703125 1.007812 7.320312 0.832031 6.84375 0.75 C 6.363281 0.675781 5.703125 0.640625 4.859375 0.640625 C 4.503906 0.640625 4.054688 0.628906 3.515625 0.609375 C 3.023438 0.910156 2.648438 1.25 2.390625 1.625 C 2.128906 2.007812 2 2.484375 2 3.046875 C 2 3.828125 2.253906 4.441406 2.765625 4.890625 C 3.285156 5.347656 4.003906 5.578125 4.921875 5.578125 Z M 4.921875 5.578125 "/></g></g></g><g fill="#000000" fill-opacity="1"><g transform="translate(255.634298, 224.809804)"><g><path d="M 9.25 -1.203125 C 9.3125 -1.203125 9.347656 -1.164062 9.359375 -1.09375 C 9.378906 -1.03125 9.359375 -0.984375 9.296875 -0.953125 L 7 0.140625 C 6.9375 0.160156 6.878906 0.171875 6.828125 0.171875 C 6.628906 0.171875 6.457031 0.0390625 6.3125 -0.21875 C 6.164062 -0.476562 6.066406 -0.828125 6.015625 -1.265625 L 4.859375 -0.515625 C 4.484375 -0.273438 4.15625 -0.101562 3.875 0 C 3.59375 0.101562 3.296875 0.15625 2.984375 0.15625 C 2.429688 0.15625 2.003906 0.0078125 1.703125 -0.28125 C 1.398438 -0.570312 1.25 -0.9375 1.25 -1.375 C 1.25 -1.820312 1.425781 -2.207031 1.78125 -2.53125 C 2.132812 -2.863281 2.722656 -3.179688 3.546875 -3.484375 L 6 -4.390625 L 6 -5.90625 C 6 -7.570312 5.53125 -8.40625 4.59375 -8.40625 C 4.082031 -8.40625 3.695312 -8.238281 3.4375 -7.90625 C 3.175781 -7.570312 3.003906 -7.1875 2.921875 -6.75 C 2.878906 -6.488281 2.796875 -6.269531 2.671875 -6.09375 C 2.554688 -5.925781 2.359375 -5.84375 2.078125 -5.84375 C 1.835938 -5.84375 1.65625 -5.910156 1.53125 -6.046875 C 1.40625 -6.179688 1.34375 -6.335938 1.34375 -6.515625 C 1.34375 -6.867188 1.570312 -7.222656 2.03125 -7.578125 C 2.488281 -7.929688 3.035156 -8.226562 3.671875 -8.46875 C 4.316406 -8.707031 4.890625 -8.828125 5.390625 -8.828125 C 6.003906 -8.828125 6.46875 -8.632812 6.78125 -8.25 C 7.09375 -7.863281 7.25 -7.304688 7.25 -6.578125 L 7.25 -2.40625 C 7.25 -1.882812 7.3125 -1.503906 7.4375 -1.265625 C 7.570312 -1.035156 7.796875 -0.921875 8.109375 -0.921875 C 8.398438 -0.921875 8.765625 -1.015625 9.203125 -1.203125 Z M 6 -1.578125 L 6 -4.078125 L 3.921875 -3.28125 C 3.503906 -3.113281 3.203125 -2.921875 3.015625 -2.703125 C 2.835938 -2.492188 2.75 -2.238281 2.75 -1.9375 C 2.75 -1.582031 2.863281 -1.28125 3.09375 -1.03125 C 3.320312 -0.789062 3.617188 -0.671875 3.984375 -0.671875 C 4.285156 -0.671875 4.644531 -0.789062 5.0625 -1.03125 Z M 6 -1.578125 "/></g></g></g><g fill="#000000" fill-opacity="1"><g transform="translate(267.916337, 224.809804)"><g><path d="M 2.25 -7.25 C 2.25 -6.726562 2.421875 -6.3125 2.765625 -6 C 3.109375 -5.695312 3.609375 -5.378906 4.265625 -5.046875 C 4.785156 -4.773438 5.1875 -4.539062 5.46875 -4.34375 C 5.757812 -4.15625 6.007812 -3.90625 6.21875 -3.59375 C 6.425781 -3.28125 6.53125 -2.898438 6.53125 -2.453125 C 6.53125 -1.691406 6.25 -1.050781 5.6875 -0.53125 C 5.125 -0.0078125 4.359375 0.25 3.390625 0.25 C 2.597656 0.25 1.882812 0.0234375 1.25 -0.421875 C 1.15625 -0.484375 1.109375 -0.570312 1.109375 -0.6875 L 1.0625 -2.4375 C 1.0625 -2.476562 1.101562 -2.5 1.1875 -2.5 C 1.269531 -2.507812 1.320312 -2.492188 1.34375 -2.453125 C 1.625 -1.710938 1.988281 -1.144531 2.4375 -0.75 C 2.894531 -0.363281 3.421875 -0.171875 4.015625 -0.171875 C 4.503906 -0.171875 4.875 -0.289062 5.125 -0.53125 C 5.375 -0.769531 5.488281 -1.117188 5.46875 -1.578125 C 5.445312 -2.148438 5.269531 -2.585938 4.9375 -2.890625 C 4.601562 -3.191406 4.101562 -3.503906 3.4375 -3.828125 C 2.945312 -4.066406 2.554688 -4.28125 2.265625 -4.46875 C 1.972656 -4.664062 1.722656 -4.921875 1.515625 -5.234375 C 1.316406 -5.546875 1.21875 -5.9375 1.21875 -6.40625 C 1.21875 -7.207031 1.519531 -7.816406 2.125 -8.234375 C 2.726562 -8.660156 3.441406 -8.875 4.265625 -8.875 C 4.859375 -8.875 5.398438 -8.765625 5.890625 -8.546875 C 5.972656 -8.515625 6.023438 -8.476562 6.046875 -8.4375 C 6.078125 -8.40625 6.09375 -8.359375 6.09375 -8.296875 C 6.09375 -7.992188 6.082031 -7.765625 6.0625 -7.609375 L 6.046875 -6.671875 C 6.046875 -6.640625 6 -6.625 5.90625 -6.625 C 5.820312 -6.625 5.78125 -6.640625 5.78125 -6.671875 C 5.78125 -6.984375 5.660156 -7.273438 5.421875 -7.546875 C 5.179688 -7.816406 4.878906 -8.035156 4.515625 -8.203125 C 4.160156 -8.367188 3.804688 -8.453125 3.453125 -8.453125 C 3.085938 -8.453125 2.796875 -8.347656 2.578125 -8.140625 C 2.359375 -7.941406 2.25 -7.644531 2.25 -7.25 Z M 2.25 -7.25 "/></g></g></g></svg>